REM DIRINDEX 1\5,1\2\6,1\2\7,1\3\8,1\3\9,1\4\10,1\4\11,1\4\12
REM DIRNAME folder01,folder02,folder03,folder04,folder05,folder06,folder07,folder08,folder09,folder10,folder11,folder12
TITLE ""
FILE "EJ_DB3000_5th_4B_30.mp3" MP3
  TRACK 01 AUDIO
    TITLE "0:"
    INDEX 01 00:00:00
  TRACK 02 AUDIO
    TITLE "9:cjc026_05053"
    INDEX 01 00:00:05
  TRACK 03 AUDIO
    TITLE "0:"
    INDEX 01 00:00:66
  TRACK 04 AUDIO
    TITLE "8:cjc026_05054"
    INDEX 01 00:01:19
  TRACK 05 AUDIO
    TITLE "0:"
    INDEX 01 00:02:16
  TRACK 06 AUDIO
    TITLE "9:cjc026_05055"
    INDEX 01 00:02:42
  TRACK 07 AUDIO
    TITLE "0:"
    INDEX 01 00:03:51
  TRACK 08 AUDIO
    TITLE "8:cjc026_05056"
    INDEX 01 00:04:03
  TRACK 09 AUDIO
    TITLE "0:"
    INDEX 01 00:05:05
  TRACK 10 AUDIO
    TITLE "9:cjc026_05057"
    INDEX 01 00:05:30
  TRACK 11 AUDIO
    TITLE "0:"
    INDEX 01 00:06:41
  TRACK 12 AUDIO
    TITLE "8:cjc026_05058"
    INDEX 01 00:06:67
  TRACK 13 AUDIO
    TITLE "0:"
    INDEX 01 00:08:03
  TRACK 14 AUDIO
    TITLE "9:cjc026_05059"
    INDEX 01 00:08:28
  TRACK 15 AUDIO
    TITLE "0:"
    INDEX 01 00:09:30
  TRACK 16 AUDIO
    TITLE "8:cjc026_05060"
    INDEX 01 00:09:57
  TRACK 17 AUDIO
    TITLE "0:"
    INDEX 01 00:10:55
  TRACK 18 AUDIO
    TITLE "9:cjc026_05061"
    INDEX 01 00:11:05
  TRACK 19 AUDIO
    TITLE "0:"
    INDEX 01 00:12:01
  TRACK 20 AUDIO
    TITLE "8:cjc026_05062"
    INDEX 01 00:12:26
  TRACK 21 AUDIO
    TITLE "0:"
    INDEX 01 00:13:04
  TRACK 22 AUDIO
    TITLE "9:cjc026_05063"
    INDEX 01 00:13:32
  TRACK 23 AUDIO
    TITLE "0:"
    INDEX 01 00:14:21
  TRACK 24 AUDIO
    TITLE "8:cjc026_05064"
    INDEX 01 00:14:47
  TRACK 25 AUDIO
    TITLE "0:"
    INDEX 01 00:15:34
  TRACK 26 AUDIO
    TITLE "9:cjc026_05065"
    INDEX 01 00:15:60
  TRACK 27 AUDIO
    TITLE "0:"
    INDEX 01 00:16:57
  TRACK 28 AUDIO
    TITLE "8:cjc026_05066"
    INDEX 01 00:17:08
  TRACK 29 AUDIO
    TITLE "0:"
    INDEX 01 00:18:01
  TRACK 30 AUDIO
    TITLE "9:cjc026_05067"
    INDEX 01 00:18:29
  TRACK 31 AUDIO
    TITLE "0:"
    INDEX 01 00:19:38
  TRACK 32 AUDIO
    TITLE "8:cjc026_05068"
    INDEX 01 00:19:63
  TRACK 33 AUDIO
    TITLE "0:"
    INDEX 01 00:20:65
  TRACK 34 AUDIO
    TITLE "9:cjc026_05069"
    INDEX 01 00:21:17
  TRACK 35 AUDIO
    TITLE "0:"
    INDEX 01 00:22:05
  TRACK 36 AUDIO
    TITLE "8:cjc026_05070"
    INDEX 01 00:22:32
  TRACK 37 AUDIO
    TITLE "0:"
    INDEX 01 00:23:34
  TRACK 38 AUDIO
    TITLE "9:cjc026_05071"
    INDEX 01 00:23:61
  TRACK 39 AUDIO
    TITLE "0:"
    INDEX 01 00:24:57
  TRACK 40 AUDIO
    TITLE "8:cjc026_05072"
    INDEX 01 00:25:07
  TRACK 41 AUDIO
    TITLE "0:"
    INDEX 01 00:26:01
  TRACK 42 AUDIO
    TITLE "9:cjc026_05073"
    INDEX 01 00:26:26
  TRACK 43 AUDIO
    TITLE "0:"
    INDEX 01 00:27:16
  TRACK 44 AUDIO
    TITLE "8:cjc026_05074"
    INDEX 01 00:27:43
  TRACK 45 AUDIO
    TITLE "0:"
    INDEX 01 00:28:41
  TRACK 46 AUDIO
    TITLE "9:cjc026_05075"
    INDEX 01 00:28:66
  TRACK 47 AUDIO
    TITLE "0:"
    INDEX 01 00:29:58
  TRACK 48 AUDIO
    TITLE "8:cjc026_05076"
    INDEX 01 00:30:10
  TRACK 49 AUDIO
    TITLE "0:"
    INDEX 01 00:31:24
  TRACK 50 AUDIO
    TITLE "9:cjc026_05077"
    INDEX 01 00:31:51
  TRACK 51 AUDIO
    TITLE "0:"
    INDEX 01 00:32:45
  TRACK 52 AUDIO
    TITLE "8:cjc026_05078"
    INDEX 01 00:32:72
  TRACK 53 AUDIO
    TITLE "0:"
    INDEX 01 00:34:10
  TRACK 54 AUDIO
    TITLE "9:cjc026_05079"
    INDEX 01 00:34:36
  TRACK 55 AUDIO
    TITLE "0:"
    INDEX 01 00:35:31
  TRACK 56 AUDIO
    TITLE "8:cjc026_05080"
    INDEX 01 00:35:57
  TRACK 57 AUDIO
    TITLE "0:"
    INDEX 01 00:37:05
  TRACK 58 AUDIO
    TITLE "9:cjc026_05081"
    INDEX 01 00:37:30
  TRACK 59 AUDIO
    TITLE "0:"
    INDEX 01 00:38:24
  TRACK 60 AUDIO
    TITLE "8:cjc026_05082"
    INDEX 01 00:38:49
  TRACK 61 AUDIO
    TITLE "0:"
    INDEX 01 00:39:51
